<svg xmlns="http://www.w3.org/2000/svg" xmlns:xlink="http://www.w3.org/1999/xlink" width="40" zoomAndPan="magnify" viewBox="0 0 30 30.000001" height="40" preserveAspectRatio="xMidYMid meet" version="1.0"><defs><clipPath id="5ffa346de1"><path d="M 17 6.949219 L 17.34375 6.949219 L 17.34375 7.195312 L 17 7.195312 Z M 17 6.949219 " clip-rule="nonzero"/></clipPath><clipPath id="61b7bab43d"><path d="M 17.324219 7.113281 C 16.667969 7.332031 17.25 6.96875 17.25 6.96875 " clip-rule="nonzero"/></clipPath><clipPath id="83a695de4a"><path d="M 0.484375 6 L 5 6 L 5 17 L 0.484375 17 Z M 0.484375 6 " clip-rule="nonzero"/></clipPath><clipPath id="a82f15594f"><path d="M 26 7 L 29.515625 7 L 29.515625 20 L 26 20 Z M 26 7 " clip-rule="nonzero"/></clipPath></defs><g clip-path="url(#5ffa346de1)"><g clip-path="url(#61b7bab43d)"><path fill="#0c4370" d="M 13.765625 4.066406 L 20.300781 4.066406 L 20.300781 10.378906 L 13.765625 10.378906 Z M 13.765625 4.066406 " fill-opacity="1" fill-rule="nonzero"/></g></g><path fill="#0c4370" d="M 13.871094 28.851562 C 13.714844 28.851562 13.558594 28.804688 13.425781 28.707031 C 13.089844 28.457031 13.019531 27.988281 13.265625 27.652344 L 13.734375 27.007812 C 15.65625 24.394531 16.921875 21.3125 17.382812 18.097656 C 17.441406 17.683594 17.824219 17.394531 18.242188 17.457031 C 18.652344 17.515625 18.941406 17.898438 18.878906 18.316406 C 18.382812 21.777344 17.019531 25.089844 14.949219 27.90625 L 14.480469 28.550781 C 14.332031 28.746094 14.105469 28.851562 13.871094 28.851562 Z M 13.871094 28.851562 " fill-opacity="1" fill-rule="nonzero"/><path fill="#0c4370" d="M 7.023438 26.351562 C 6.832031 26.351562 6.648438 26.285156 6.496094 26.140625 C 6.195312 25.847656 6.191406 25.367188 6.480469 25.074219 L 6.808594 24.730469 C 9.429688 22.023438 10.871094 18.460938 10.871094 14.699219 L 10.871094 14.597656 C 10.871094 12.308594 12.683594 10.414062 14.910156 10.371094 C 16.027344 10.359375 17.078125 10.773438 17.871094 11.546875 C 18.664062 12.332031 19.105469 13.375 19.105469 14.484375 L 19.105469 15.257812 C 19.105469 15.675781 18.769531 16.011719 18.351562 16.011719 C 17.933594 16.011719 17.597656 15.675781 17.597656 15.257812 L 17.597656 14.484375 C 17.597656 13.78125 17.320312 13.117188 16.816406 12.625 C 16.3125 12.132812 15.644531 11.863281 14.945312 11.878906 C 13.535156 11.902344 12.390625 13.125 12.390625 14.597656 L 12.390625 14.699219 C 12.390625 18.859375 10.796875 22.796875 7.90625 25.785156 L 7.574219 26.128906 C 7.417969 26.277344 7.222656 26.351562 7.023438 26.351562 Z M 7.023438 26.351562 " fill-opacity="1" fill-rule="nonzero"/><path fill="#0c4370" d="M 18.347656 28.371094 C 18.21875 28.371094 18.089844 28.339844 17.976562 28.269531 C 17.609375 28.070312 17.484375 27.605469 17.691406 27.238281 L 18.324219 26.121094 C 20.109375 22.957031 21.050781 19.363281 21.050781 15.730469 L 21.050781 14.484375 C 21.050781 13.210938 20.660156 11.988281 19.917969 10.957031 C 19.671875 10.621094 19.75 10.144531 20.089844 9.902344 C 20.425781 9.660156 20.902344 9.734375 21.144531 10.078125 C 22.070312 11.367188 22.566406 12.894531 22.566406 14.492188 L 22.566406 15.742188 C 22.566406 19.636719 21.554688 23.484375 19.636719 26.875 L 19.007812 27.992188 C 18.863281 28.230469 18.605469 28.371094 18.347656 28.371094 Z M 18.347656 28.371094 " fill-opacity="1" fill-rule="nonzero"/><path fill="#0c4370" d="M 7.972656 17.824219 C 7.929688 17.824219 7.875 17.816406 7.828125 17.8125 C 7.417969 17.730469 7.152344 17.335938 7.234375 16.925781 C 7.355469 16.3125 7.410156 15.679688 7.410156 15.054688 L 7.410156 14.648438 C 7.410156 10.527344 10.6875 7.0625 14.707031 6.917969 C 15.757812 6.878906 16.78125 7.058594 17.75 7.433594 C 18.136719 7.585938 18.328125 8.023438 18.179688 8.414062 C 18.027344 8.800781 17.585938 8.992188 17.199219 8.84375 C 16.421875 8.535156 15.605469 8.402344 14.757812 8.429688 C 11.539062 8.546875 8.917969 11.335938 8.917969 14.652344 L 8.917969 15.058594 C 8.917969 15.785156 8.847656 16.507812 8.710938 17.214844 C 8.644531 17.574219 8.328125 17.824219 7.972656 17.824219 Z M 7.972656 17.824219 " fill-opacity="1" fill-rule="nonzero"/><path fill="#0c4370" d="M 4.527344 23.9375 C 4.351562 23.9375 4.171875 23.875 4.035156 23.75 C 3.722656 23.480469 3.6875 23 3.957031 22.683594 L 5.019531 21.460938 C 5.539062 20.859375 5.988281 20.199219 6.351562 19.488281 C 6.542969 19.117188 6.996094 18.964844 7.367188 19.15625 C 7.738281 19.347656 7.886719 19.800781 7.695312 20.171875 C 7.277344 20.988281 6.761719 21.757812 6.160156 22.449219 L 5.09375 23.671875 C 4.945312 23.84375 4.734375 23.9375 4.527344 23.9375 Z M 4.527344 23.9375 " fill-opacity="1" fill-rule="nonzero"/><path fill="#0c4370" d="M 23.21875 26.191406 C 23.113281 26.191406 23.011719 26.167969 22.90625 26.121094 C 22.523438 25.949219 22.355469 25.5 22.53125 25.121094 C 23.839844 22.222656 24.5 19.144531 24.5 15.964844 C 24.5 15.546875 24.835938 15.210938 25.253906 15.210938 C 25.671875 15.210938 26.007812 15.546875 26.007812 15.964844 C 26.007812 19.359375 25.300781 22.644531 23.902344 25.738281 C 23.78125 26.027344 23.507812 26.191406 23.21875 26.191406 Z M 23.21875 26.191406 " fill-opacity="1" fill-rule="nonzero"/><path fill="#0c4370" d="M 25.054688 13.207031 C 24.703125 13.207031 24.390625 12.957031 24.316406 12.597656 C 23.445312 8.261719 19.597656 5.054688 15.171875 4.972656 C 14.753906 4.964844 14.421875 4.617188 14.429688 4.199219 C 14.433594 3.785156 14.78125 3.460938 15.199219 3.460938 C 20.328125 3.558594 24.785156 7.277344 25.796875 12.300781 C 25.878906 12.714844 25.613281 13.105469 25.207031 13.195312 C 25.15625 13.199219 25.101562 13.207031 25.054688 13.207031 Z M 25.054688 13.207031 " fill-opacity="1" fill-rule="nonzero"/><path fill="#0c4370" d="M 2.753906 20.953125 C 2.601562 20.953125 2.445312 20.90625 2.3125 20.8125 C 1.972656 20.570312 1.894531 20.101562 2.140625 19.757812 L 3.152344 18.34375 C 3.679688 17.609375 3.957031 16.742188 3.957031 15.832031 L 3.957031 14.6875 C 3.957031 9.863281 7.132812 5.457031 11.675781 3.980469 C 12.070312 3.851562 12.5 4.066406 12.628906 4.46875 C 12.753906 4.863281 12.539062 5.289062 12.140625 5.417969 C 8.210938 6.691406 5.464844 10.503906 5.464844 14.6875 L 5.464844 15.832031 C 5.464844 17.054688 5.089844 18.230469 4.375 19.226562 L 3.363281 20.640625 C 3.21875 20.84375 2.984375 20.953125 2.753906 20.953125 Z M 2.753906 20.953125 " fill-opacity="1" fill-rule="nonzero"/><g clip-path="url(#83a695de4a)"><path fill="#0c4370" d="M 1.253906 16.351562 C 0.835938 16.351562 0.5 16.015625 0.5 15.597656 L 0.5 14.484375 C 0.5 11.660156 1.316406 8.917969 2.859375 6.566406 C 3.082031 6.21875 3.554688 6.117188 3.902344 6.34375 C 4.25 6.570312 4.347656 7.039062 4.121094 7.394531 C 2.742188 9.503906 2.011719 11.953125 2.011719 14.484375 L 2.011719 15.59375 C 2.011719 16.011719 1.667969 16.351562 1.253906 16.351562 Z M 1.253906 16.351562 " fill-opacity="1" fill-rule="nonzero"/></g><path fill="#0c4370" d="M 25.257812 6.136719 C 25.050781 6.136719 24.84375 6.050781 24.691406 5.882812 C 22.234375 3.105469 18.695312 1.511719 14.984375 1.511719 C 11.773438 1.511719 8.691406 2.695312 6.3125 4.839844 C 6 5.117188 5.523438 5.09375 5.246094 4.78125 C 4.96875 4.46875 4.988281 3.992188 5.304688 3.714844 C 7.957031 1.320312 11.398438 0 14.984375 0 C 19.121094 0 23.074219 1.777344 25.828125 4.878906 C 26.105469 5.191406 26.078125 5.667969 25.761719 5.945312 C 25.617188 6.074219 25.4375 6.136719 25.257812 6.136719 Z M 25.257812 6.136719 " fill-opacity="1" fill-rule="nonzero"/><g clip-path="url(#a82f15594f)"><path fill="#0c4370" d="M 28.351562 19.34375 C 28.3125 19.34375 28.265625 19.335938 28.226562 19.332031 C 27.816406 19.261719 27.535156 18.867188 27.605469 18.460938 C 27.988281 16.230469 27.960938 14.519531 27.960938 14.503906 C 27.960938 12.40625 27.484375 10.417969 26.539062 8.582031 C 26.347656 8.210938 26.492188 7.753906 26.871094 7.5625 C 27.242188 7.371094 27.699219 7.515625 27.882812 7.890625 C 28.9375 9.945312 29.472656 12.164062 29.472656 14.484375 C 29.472656 14.542969 29.5 16.328125 29.09375 18.710938 C 29.03125 19.082031 28.710938 19.34375 28.351562 19.34375 Z M 28.351562 19.34375 " fill-opacity="1" fill-rule="nonzero"/></g><path fill="#0c4370" d="M 9.960938 27.921875 C 9.753906 27.921875 9.542969 27.835938 9.394531 27.667969 C 9.117188 27.355469 9.144531 26.878906 9.457031 26.601562 C 9.519531 26.550781 14.226562 22.238281 14.226562 14.484375 C 14.226562 14.070312 14.5625 13.734375 14.980469 13.734375 C 15.398438 13.734375 15.734375 14.070312 15.734375 14.484375 C 15.734375 22.957031 10.675781 27.542969 10.460938 27.734375 C 10.320312 27.859375 10.140625 27.921875 9.960938 27.921875 Z M 9.960938 27.921875 " fill-opacity="1" fill-rule="nonzero"/></svg>