<svg xmlns="http://www.w3.org/2000/svg" xmlns:xlink="http://www.w3.org/1999/xlink" width="40" zoomAndPan="magnify" viewBox="0 0 30 30.000001" height="40" preserveAspectRatio="xMidYMid meet" version="1.0"><defs><clipPath id="b267e0e86a"><path d="M 17 6.949219 L 17.34375 6.949219 L 17.34375 7.195312 L 17 7.195312 Z M 17 6.949219 " clip-rule="nonzero"/></clipPath><clipPath id="4bda8159a6"><path d="M 17.324219 7.113281 C 16.667969 7.332031 17.25 6.96875 17.25 6.96875 " clip-rule="nonzero"/></clipPath><clipPath id="33b1ec13ee"><path d="M 0.484375 0.707031 L 29.515625 0.707031 L 29.515625 28.289062 L 0.484375 28.289062 Z M 0.484375 0.707031 " clip-rule="nonzero"/></clipPath></defs><g clip-path="url(#b267e0e86a)"><g clip-path="url(#4bda8159a6)"><path fill="#0c4370" d="M 13.765625 4.066406 L 20.300781 4.066406 L 20.300781 10.378906 L 13.765625 10.378906 Z M 13.765625 4.066406 " fill-opacity="1" fill-rule="nonzero"/></g></g><g clip-path="url(#33b1ec13ee)"><path fill="#0c4370" d="M 28.382812 8.460938 L 16.371094 1.179688 C 15.566406 0.707031 14.433594 0.707031 13.628906 1.179688 L 1.617188 8.460938 C 0.957031 8.839844 0.671875 9.503906 0.863281 10.117188 C 1.097656 10.921875 1.949219 11.441406 2.988281 11.441406 L 4.40625 11.441406 L 4.40625 23.214844 C 3.132812 23.355469 2.136719 24.445312 2.136719 25.769531 C 2.136719 27.1875 3.273438 28.324219 4.691406 28.324219 L 25.167969 28.324219 C 26.585938 28.324219 27.71875 27.1875 27.71875 25.769531 C 27.71875 24.445312 26.726562 23.40625 25.449219 23.214844 L 25.449219 11.441406 L 26.867188 11.441406 C 27.910156 11.441406 28.808594 10.921875 28.996094 10.117188 C 29.328125 9.503906 28.996094 8.886719 28.382812 8.460938 Z M 26.867188 25.769531 C 26.867188 26.667969 26.160156 27.375 25.261719 27.375 L 4.738281 27.375 C 3.839844 27.375 3.132812 26.667969 3.132812 25.769531 C 3.132812 24.871094 3.839844 24.160156 4.738281 24.160156 L 25.117188 24.160156 C 26.160156 24.160156 26.867188 24.871094 26.867188 25.769531 Z M 5.402344 23.214844 L 5.402344 11.441406 L 8.097656 11.441406 L 8.097656 23.167969 L 5.402344 23.167969 Z M 18.214844 16.972656 L 17.835938 16.972656 C 17.363281 16.972656 16.984375 16.59375 16.984375 16.121094 L 16.984375 13.425781 C 17.835938 13 18.546875 12.339844 19.019531 11.488281 L 21.003906 11.488281 L 21.003906 23.214844 L 19.207031 23.214844 L 19.207031 17.917969 C 19.160156 17.398438 18.734375 16.972656 18.214844 16.972656 Z M 17.835938 17.917969 L 18.214844 17.917969 L 18.214844 23.214844 L 11.785156 23.214844 L 11.785156 17.917969 L 12.164062 17.917969 C 13.15625 17.917969 13.960938 17.117188 13.960938 16.121094 L 13.960938 13.757812 C 14.289062 13.851562 14.621094 13.898438 15 13.898438 C 15.332031 13.898438 15.710938 13.851562 16.039062 13.757812 L 16.039062 16.121094 C 16.039062 17.070312 16.84375 17.917969 17.835938 17.917969 Z M 15 12.90625 C 13.015625 12.90625 11.40625 11.300781 11.40625 9.3125 C 11.40625 7.328125 13.015625 5.71875 15 5.71875 C 16.984375 5.71875 18.59375 7.328125 18.59375 9.3125 C 18.59375 11.300781 16.984375 12.90625 15 12.90625 Z M 13.015625 13.378906 L 13.015625 16.074219 C 13.015625 16.546875 12.636719 16.925781 12.164062 16.925781 L 11.785156 16.925781 C 11.265625 16.925781 10.839844 17.351562 10.839844 17.871094 L 10.839844 23.167969 L 9.042969 23.167969 L 9.042969 11.441406 L 11.027344 11.441406 C 11.453125 12.292969 12.164062 12.953125 13.015625 13.378906 Z M 21.949219 23.214844 L 21.949219 11.441406 L 24.644531 11.441406 L 24.644531 23.167969 L 21.949219 23.167969 Z M 28.238281 9.882812 C 28.144531 10.210938 27.71875 10.496094 27.011719 10.496094 L 19.398438 10.496094 C 19.492188 10.117188 19.585938 9.691406 19.585938 9.265625 C 19.585938 6.761719 17.554688 4.726562 15.046875 4.726562 C 12.542969 4.726562 10.507812 6.761719 10.507812 9.265625 C 10.507812 9.691406 10.554688 10.117188 10.695312 10.496094 L 2.988281 10.496094 C 2.28125 10.496094 1.855469 10.164062 1.761719 9.882812 C 1.664062 9.597656 1.949219 9.359375 2.089844 9.265625 L 14.101562 1.984375 C 14.574219 1.699219 15.378906 1.699219 15.851562 1.984375 L 27.863281 9.265625 C 28.050781 9.359375 28.289062 9.597656 28.238281 9.882812 Z M 16.371094 9.738281 C 16.511719 10.023438 16.464844 10.355469 16.277344 10.730469 C 16.136719 11.015625 15.851562 11.253906 15.566406 11.394531 C 15.566406 11.394531 15.519531 11.394531 15.519531 11.441406 C 15.519531 11.441406 15.472656 11.441406 15.472656 11.441406 L 15.472656 11.773438 C 15.472656 12.054688 15.285156 12.246094 15 12.246094 C 14.714844 12.246094 14.527344 12.054688 14.527344 11.773438 L 14.527344 11.488281 C 14.480469 11.488281 14.433594 11.441406 14.386719 11.441406 C 14.339844 11.441406 14.339844 11.441406 14.289062 11.394531 C 14.054688 11.300781 13.816406 11.15625 13.675781 10.921875 C 13.535156 10.730469 13.582031 10.402344 13.769531 10.257812 C 14.007812 10.117188 14.289062 10.164062 14.433594 10.355469 C 14.480469 10.402344 14.527344 10.449219 14.574219 10.449219 L 15.238281 10.449219 C 15.332031 10.402344 15.378906 10.355469 15.425781 10.257812 C 15.472656 10.117188 15.472656 10.070312 15.472656 10.023438 C 15.425781 9.929688 15 9.785156 14.8125 9.691406 C 14.621094 9.644531 14.480469 9.597656 14.339844 9.503906 C 13.535156 9.125 13.535156 8.507812 13.535156 8.226562 C 13.582031 7.707031 13.960938 7.28125 14.480469 7.042969 L 14.480469 6.714844 C 14.480469 6.429688 14.667969 6.238281 14.953125 6.238281 C 15.238281 6.238281 15.425781 6.429688 15.425781 6.714844 L 15.425781 6.902344 C 15.757812 6.949219 16.085938 7.1875 16.277344 7.46875 C 16.417969 7.707031 16.371094 7.988281 16.136719 8.132812 C 15.898438 8.273438 15.613281 8.226562 15.472656 7.988281 C 15.378906 7.894531 15.285156 7.753906 15 7.800781 C 14.761719 7.988281 14.527344 8.273438 14.480469 8.460938 C 14.480469 8.558594 14.574219 8.652344 14.761719 8.792969 C 14.859375 8.839844 15 8.886719 15.140625 8.933594 C 15.613281 9.078125 16.183594 9.265625 16.371094 9.738281 Z M 16.371094 9.738281 " fill-opacity="1" fill-rule="nonzero"/></g></svg>