<svg xmlns="http://www.w3.org/2000/svg" xmlns:xlink="http://www.w3.org/1999/xlink" width="40" zoomAndPan="magnify" viewBox="0 0 30 30.000001" height="40" preserveAspectRatio="xMidYMid meet" version="1.0"><defs><clipPath id="44f13f694b"><path d="M 17 6.949219 L 17.34375 6.949219 L 17.34375 7.195312 L 17 7.195312 Z M 17 6.949219 " clip-rule="nonzero"/></clipPath><clipPath id="e4543bb1d6"><path d="M 17.324219 7.113281 C 16.667969 7.332031 17.25 6.96875 17.25 6.96875 " clip-rule="nonzero"/></clipPath><clipPath id="4f442e2127"><path d="M 0.484375 2.902344 L 29.515625 2.902344 L 29.515625 26.128906 L 0.484375 26.128906 Z M 0.484375 2.902344 " clip-rule="nonzero"/></clipPath></defs><g clip-path="url(#44f13f694b)"><g clip-path="url(#e4543bb1d6)"><path fill="#0c4370" d="M 13.765625 4.066406 L 20.300781 4.066406 L 20.300781 10.378906 L 13.765625 10.378906 Z M 13.765625 4.066406 " fill-opacity="1" fill-rule="nonzero"/></g></g><g clip-path="url(#4f442e2127)"><path fill="#0c4370" d="M 15.054688 20.480469 C 11.71875 20.480469 9.003906 17.769531 9.003906 14.433594 C 9.003906 11.101562 11.71875 8.386719 15.054688 8.386719 C 18.386719 8.386719 21.101562 11.101562 21.101562 14.433594 C 21.101562 17.769531 18.386719 20.480469 15.054688 20.480469 Z M 17.757812 15.851562 C 17.839844 16.929688 17.050781 18.195312 15.75 18.363281 C 15.675781 18.371094 15.613281 18.371094 15.542969 18.378906 L 15.542969 19.300781 C 15.542969 19.566406 15.324219 19.785156 15.058594 19.785156 C 14.792969 19.785156 14.574219 19.566406 14.574219 19.300781 L 14.574219 18.347656 C 13.257812 18.148438 12.511719 17.371094 12.472656 17.328125 C 12.289062 17.132812 12.300781 16.824219 12.5 16.644531 C 12.691406 16.460938 13 16.472656 13.179688 16.667969 C 13.214844 16.703125 14.089844 17.597656 15.628906 17.40625 C 16.351562 17.3125 16.839844 16.546875 16.789062 15.929688 C 16.742188 15.300781 16.195312 14.960938 15.238281 14.992188 C 13.074219 15.039062 12.535156 13.882812 12.40625 13.382812 C 12.15625 12.402344 12.683594 11.277344 13.644531 10.777344 C 13.953125 10.609375 14.269531 10.523438 14.574219 10.492188 L 14.574219 9.574219 C 14.574219 9.308594 14.792969 9.09375 15.058594 9.09375 C 15.324219 9.09375 15.542969 9.308594 15.542969 9.574219 L 15.542969 10.535156 C 16.484375 10.722656 17.203125 11.257812 17.25 11.296875 C 17.464844 11.457031 17.5 11.761719 17.34375 11.976562 C 17.183594 12.1875 16.878906 12.226562 16.664062 12.066406 C 16.644531 12.054688 15.914062 11.515625 15.078125 11.453125 C 15.074219 11.453125 15.066406 11.453125 15.058594 11.453125 C 15.042969 11.453125 15.027344 11.449219 15.015625 11.445312 C 14.710938 11.429688 14.394531 11.472656 14.09375 11.632812 C 13.539062 11.921875 13.203125 12.601562 13.34375 13.140625 C 13.496094 13.726562 14.175781 14.054688 15.21875 14.023438 C 16.992188 13.988281 17.691406 14.945312 17.757812 15.859375 Z M 26.386719 4.054688 C 26.003906 3.710938 25.472656 3.628906 25 3.847656 C 24.53125 4.058594 24.246094 4.515625 24.25 5.042969 C 24.25 5.210938 24.117188 5.34375 23.941406 5.34375 L 15.886719 5.34375 C 15.609375 5.316406 15.332031 5.296875 15.054688 5.296875 C 10.015625 5.296875 5.921875 9.390625 5.921875 14.429688 C 5.921875 16.355469 6.527344 18.140625 7.546875 19.617188 L 5.980469 19.617188 C 5.8125 19.617188 5.671875 19.480469 5.667969 19.3125 L 5.667969 19.027344 C 5.652344 18.519531 5.355469 18.074219 4.886719 17.875 C 4.417969 17.671875 3.890625 17.761719 3.519531 18.109375 L 0.894531 20.539062 C 0.628906 20.78125 0.480469 21.128906 0.484375 21.488281 C 0.484375 21.851562 0.644531 22.195312 0.910156 22.425781 L 3.613281 24.859375 C 3.855469 25.078125 4.15625 25.191406 4.460938 25.191406 C 4.644531 25.191406 4.828125 25.152344 5.003906 25.070312 C 5.472656 24.851562 5.753906 24.402344 5.742188 23.882812 C 5.742188 23.710938 5.882812 23.570312 6.058594 23.570312 L 15.742188 23.570312 C 15.898438 23.570312 16.054688 23.535156 16.195312 23.476562 C 20.695312 22.917969 24.1875 19.074219 24.1875 14.425781 C 24.1875 12.523438 23.601562 10.757812 22.605469 9.296875 L 24.023438 9.296875 C 24.195312 9.296875 24.332031 9.429688 24.339844 9.601562 L 24.339844 9.886719 C 24.351562 10.394531 24.644531 10.832031 25.113281 11.035156 C 25.277344 11.109375 25.453125 11.144531 25.621094 11.144531 C 25.933594 11.144531 26.242188 11.027344 26.488281 10.800781 L 29.109375 8.371094 C 29.375 8.125 29.527344 7.777344 29.519531 7.417969 C 29.519531 7.058594 29.359375 6.722656 29.09375 6.484375 L 26.390625 4.050781 Z M 6.058594 22.609375 C 5.351562 22.609375 4.777344 23.1875 4.777344 23.914062 C 4.777344 24.097656 4.65625 24.175781 4.597656 24.199219 C 4.539062 24.222656 4.398438 24.269531 4.257812 24.148438 L 1.546875 21.710938 C 1.460938 21.632812 1.445312 21.535156 1.445312 21.484375 C 1.445312 21.433594 1.457031 21.339844 1.546875 21.257812 L 4.175781 18.828125 C 4.304688 18.707031 4.453125 18.746094 4.507812 18.769531 C 4.5625 18.792969 4.695312 18.867188 4.695312 19.046875 L 4.695312 19.335938 C 4.714844 20.035156 5.277344 20.589844 5.980469 20.589844 L 8.328125 20.589844 C 9.085938 21.417969 9.996094 22.109375 11.011719 22.609375 Z M 28.445312 7.667969 L 25.824219 10.097656 C 25.6875 10.222656 25.542969 10.179688 25.484375 10.15625 C 25.433594 10.132812 25.304688 10.058594 25.300781 9.878906 L 25.300781 9.589844 C 25.28125 8.890625 24.714844 8.335938 24.015625 8.335938 L 21.828125 8.335938 C 21.085938 7.515625 20.203125 6.828125 19.203125 6.316406 L 23.9375 6.316406 C 24.640625 6.316406 25.214844 5.742188 25.214844 5.019531 C 25.214844 4.832031 25.339844 4.757812 25.398438 4.726562 C 25.457031 4.703125 25.601562 4.65625 25.738281 4.777344 L 28.445312 7.214844 C 28.535156 7.292969 28.546875 7.390625 28.546875 7.4375 C 28.546875 7.523438 28.515625 7.605469 28.445312 7.667969 Z M 4.066406 13.066406 C 4.332031 13.089844 4.527344 13.320312 4.503906 13.585938 C 4.480469 13.890625 4.464844 14.203125 4.464844 14.511719 C 4.464844 14.777344 4.25 14.996094 3.980469 14.996094 C 3.714844 14.996094 3.5 14.777344 3.5 14.511719 C 3.5 14.171875 3.511719 13.832031 3.542969 13.503906 C 3.566406 13.238281 3.796875 13.035156 4.066406 13.066406 Z M 5.472656 8.933594 C 5.25 8.785156 5.183594 8.488281 5.328125 8.265625 C 5.660156 7.742188 6.042969 7.25 6.453125 6.785156 C 6.632812 6.585938 6.9375 6.570312 7.136719 6.75 C 7.335938 6.929688 7.351562 7.234375 7.171875 7.433594 C 6.789062 7.851562 6.441406 8.3125 6.136719 8.785156 C 6.042969 8.933594 5.890625 9.007812 5.730469 9.007812 C 5.636719 9.007812 5.550781 8.984375 5.46875 8.933594 Z M 5.335938 10.292969 C 5.109375 10.816406 4.925781 11.355469 4.785156 11.902344 C 4.730469 12.121094 4.535156 12.265625 4.316406 12.265625 C 4.277344 12.265625 4.238281 12.265625 4.195312 12.25 C 3.933594 12.183594 3.777344 11.921875 3.847656 11.667969 C 3.996094 11.066406 4.199219 10.472656 4.445312 9.90625 C 4.554688 9.65625 4.839844 9.546875 5.085938 9.652344 C 5.332031 9.757812 5.445312 10.046875 5.335938 10.292969 Z M 14.710938 3.929688 C 14.433594 3.945312 14.214844 3.730469 14.210938 3.464844 C 14.203125 3.199219 14.410156 2.976562 14.675781 2.964844 C 14.804688 2.964844 14.933594 2.960938 15.0625 2.960938 C 15.554688 2.960938 16.050781 2.992188 16.535156 3.054688 C 16.800781 3.085938 16.988281 3.328125 16.949219 3.59375 C 16.921875 3.835938 16.714844 4.015625 16.472656 4.015625 C 16.453125 4.015625 16.433594 4.015625 16.40625 4.015625 C 15.953125 3.957031 15.488281 3.929688 15.019531 3.929688 C 14.914062 3.929688 14.804688 3.929688 14.703125 3.933594 Z M 10.75 4.296875 C 10.660156 4.046875 10.785156 3.769531 11.035156 3.671875 C 11.617188 3.453125 12.222656 3.285156 12.828125 3.167969 C 13.089844 3.117188 13.34375 3.289062 13.394531 3.550781 C 13.445312 3.8125 13.273438 4.070312 13.011719 4.117188 C 12.453125 4.222656 11.902344 4.378906 11.371094 4.578125 C 11.316406 4.597656 11.257812 4.605469 11.203125 4.605469 C 11.003906 4.605469 10.820312 4.484375 10.746094 4.292969 Z M 8.113281 6.371094 C 7.972656 6.371094 7.832031 6.308594 7.738281 6.195312 C 7.566406 5.984375 7.601562 5.679688 7.808594 5.511719 C 8.292969 5.125 8.8125 4.769531 9.347656 4.460938 C 9.582031 4.332031 9.875 4.40625 10.007812 4.640625 C 10.136719 4.871094 10.058594 5.167969 9.828125 5.296875 C 9.332031 5.578125 8.859375 5.902344 8.417969 6.257812 C 8.328125 6.328125 8.222656 6.363281 8.113281 6.363281 Z M 18.085938 4.363281 C 17.832031 4.285156 17.683594 4.019531 17.761719 3.765625 C 17.839844 3.507812 18.109375 3.363281 18.363281 3.441406 C 18.6875 3.535156 19.011719 3.648438 19.316406 3.769531 C 19.5625 3.867188 19.683594 4.152344 19.585938 4.398438 C 19.507812 4.585938 19.332031 4.703125 19.136719 4.703125 C 19.078125 4.703125 19.015625 4.695312 18.957031 4.667969 C 18.675781 4.558594 18.382812 4.457031 18.082031 4.363281 Z M 26.535156 13.097656 C 26.574219 13.433594 26.601562 13.769531 26.613281 14.105469 C 26.621094 14.371094 26.414062 14.597656 26.148438 14.601562 C 26.144531 14.601562 26.140625 14.601562 26.128906 14.601562 C 25.867188 14.601562 25.65625 14.398438 25.644531 14.140625 C 25.636719 13.828125 25.609375 13.519531 25.574219 13.214844 C 25.539062 12.949219 25.726562 12.707031 25.992188 12.675781 C 26.253906 12.644531 26.5 12.832031 26.53125 13.097656 Z M 19.679688 24.605469 C 19.78125 24.851562 19.660156 25.132812 19.414062 25.234375 C 18.792969 25.484375 18.144531 25.683594 17.488281 25.824219 C 17.453125 25.832031 17.417969 25.832031 17.386719 25.832031 C 17.164062 25.832031 16.960938 25.679688 16.910156 25.453125 C 16.851562 25.191406 17.023438 24.933594 17.285156 24.875 C 17.882812 24.746094 18.480469 24.566406 19.046875 24.332031 C 19.292969 24.230469 19.574219 24.351562 19.675781 24.601562 Z M 25.277344 19.933594 C 24.964844 20.527344 24.59375 21.097656 24.179688 21.625 C 24.082031 21.746094 23.941406 21.808594 23.796875 21.808594 C 23.691406 21.808594 23.589844 21.773438 23.5 21.707031 C 23.289062 21.542969 23.253906 21.238281 23.417969 21.027344 C 23.796875 20.546875 24.136719 20.023438 24.421875 19.480469 C 24.546875 19.242188 24.835938 19.152344 25.074219 19.28125 C 25.3125 19.40625 25.398438 19.699219 25.273438 19.933594 Z M 26.511719 16.117188 C 26.417969 16.785156 26.269531 17.445312 26.0625 18.082031 C 25.992188 18.285156 25.804688 18.417969 25.601562 18.417969 C 25.554688 18.417969 25.5 18.40625 25.453125 18.390625 C 25.195312 18.308594 25.058594 18.039062 25.140625 17.78125 C 25.332031 17.203125 25.472656 16.597656 25.554688 15.988281 C 25.59375 15.722656 25.832031 15.53125 26.101562 15.574219 C 26.367188 15.613281 26.550781 15.855469 26.511719 16.121094 Z M 22.84375 22.417969 C 23.023438 22.617188 23.007812 22.921875 22.808594 23.101562 C 22.3125 23.550781 21.769531 23.960938 21.203125 24.316406 C 21.121094 24.363281 21.035156 24.386719 20.945312 24.386719 C 20.785156 24.386719 20.628906 24.304688 20.535156 24.160156 C 20.394531 23.933594 20.464844 23.636719 20.683594 23.492188 C 21.203125 23.167969 21.703125 22.789062 22.15625 22.378906 C 22.355469 22.199219 22.660156 22.214844 22.839844 22.414062 Z M 15.957031 25.574219 C 15.96875 25.839844 15.757812 26.066406 15.492188 26.074219 C 15.363281 26.082031 15.226562 26.085938 15.097656 26.085938 C 14.566406 26.082031 14.019531 26.050781 13.484375 25.980469 C 13.21875 25.941406 13.035156 25.699219 13.070312 25.433594 C 13.101562 25.167969 13.351562 24.980469 13.617188 25.015625 C 14.105469 25.082031 14.597656 25.101562 15.097656 25.113281 C 15.21875 25.113281 15.339844 25.113281 15.460938 25.109375 C 15.726562 25.089844 15.953125 25.304688 15.964844 25.574219 Z M 12.117188 25.214844 C 12.046875 25.417969 11.859375 25.546875 11.65625 25.546875 C 11.609375 25.546875 11.554688 25.539062 11.507812 25.523438 C 11.1875 25.421875 10.867188 25.300781 10.558594 25.171875 C 10.3125 25.070312 10.195312 24.785156 10.300781 24.535156 C 10.40625 24.289062 10.6875 24.175781 10.933594 24.28125 C 11.214844 24.402344 11.507812 24.507812 11.800781 24.605469 C 12.058594 24.6875 12.195312 24.957031 12.109375 25.214844 Z M 12.117188 25.214844 " fill-opacity="1" fill-rule="nonzero"/></g></svg>