<svg xmlns="http://www.w3.org/2000/svg" xmlns:xlink="http://www.w3.org/1999/xlink" width="40" zoomAndPan="magnify" viewBox="0 0 30 30.000001" height="40" preserveAspectRatio="xMidYMid meet" version="1.0"><defs><clipPath id="74382fd168"><path d="M 17 6.949219 L 17.34375 6.949219 L 17.34375 7.195312 L 17 7.195312 Z M 17 6.949219 " clip-rule="nonzero"/></clipPath><clipPath id="a14569920b"><path d="M 17.324219 7.113281 C 16.667969 7.332031 17.25 6.96875 17.25 6.96875 " clip-rule="nonzero"/></clipPath><clipPath id="ee368a6d60"><path d="M 2.84375 0 L 27.519531 0 L 27.519531 29.03125 L 2.84375 29.03125 Z M 2.84375 0 " clip-rule="nonzero"/></clipPath></defs><g clip-path="url(#74382fd168)"><g clip-path="url(#a14569920b)"><path fill="#0c4370" d="M 13.765625 4.066406 L 20.300781 4.066406 L 20.300781 10.378906 L 13.765625 10.378906 Z M 13.765625 4.066406 " fill-opacity="1" fill-rule="nonzero"/></g></g><g clip-path="url(#ee368a6d60)"><path fill="#0c4370" d="M 14.980469 0 C 8.304688 0 2.886719 5.414062 2.886719 12.097656 C 2.886719 15.433594 4.238281 18.460938 6.429688 20.648438 L 14.980469 29.03125 L 23.535156 20.648438 C 25.726562 18.460938 27.082031 15.433594 27.078125 12.09375 C 27.078125 5.417969 21.664062 0 14.980469 0 Z M 22.238281 13.910156 L 16.191406 12.902344 L 16.191406 15.929688 L 18.609375 17.539062 L 18.609375 18.75 L 14.980469 17.539062 L 11.351562 18.75 L 11.351562 17.539062 L 13.773438 15.929688 L 13.773438 12.902344 L 7.722656 13.910156 L 7.722656 12.097656 L 13.773438 8.566406 L 13.773438 4.839844 C 13.773438 4.171875 14.3125 3.628906 14.980469 3.628906 C 15.652344 3.628906 16.191406 4.171875 16.191406 4.839844 L 16.191406 8.566406 L 22.238281 12.097656 Z M 22.238281 13.910156 " fill-opacity="1" fill-rule="nonzero"/></g></svg>