<svg xmlns="http://www.w3.org/2000/svg" xmlns:xlink="http://www.w3.org/1999/xlink" width="40" zoomAndPan="magnify" viewBox="0 0 30 30.000001" height="40" preserveAspectRatio="xMidYMid meet" version="1.0"><defs><clipPath id="d72e1874e0"><path d="M 17 6.949219 L 17.34375 6.949219 L 17.34375 7.195312 L 17 7.195312 Z M 17 6.949219 " clip-rule="nonzero"/></clipPath><clipPath id="2649be2ba5"><path d="M 17.324219 7.113281 C 16.667969 7.332031 17.25 6.96875 17.25 6.96875 " clip-rule="nonzero"/></clipPath><clipPath id="a6e5af5ff8"><path d="M 0.484375 0 L 29.515625 0 L 29.515625 29 L 0.484375 29 Z M 0.484375 0 " clip-rule="nonzero"/></clipPath></defs><g clip-path="url(#d72e1874e0)"><g clip-path="url(#2649be2ba5)"><path fill="#0c4370" d="M 13.765625 4.066406 L 20.300781 4.066406 L 20.300781 10.378906 L 13.765625 10.378906 Z M 13.765625 4.066406 " fill-opacity="1" fill-rule="nonzero"/></g></g><g clip-path="url(#a6e5af5ff8)"><path fill="#0c4370" d="M 18.554688 0.785156 C 18.175781 0.179688 17.363281 0.0234375 16.785156 0.445312 L 14.113281 2.386719 C 13.769531 2.632812 13.324219 2.691406 12.929688 2.53125 L 9.867188 1.296875 C 9.203125 1.03125 8.453125 1.378906 8.234375 2.058594 L 7.214844 5.199219 C 7.082031 5.605469 6.753906 5.910156 6.339844 6.015625 L 3.136719 6.816406 C 2.445312 6.992188 2.046875 7.714844 2.265625 8.394531 L 3.285156 11.535156 C 3.417969 11.9375 3.332031 12.382812 3.058594 12.707031 L 0.9375 15.238281 C 0.480469 15.785156 0.582031 16.605469 1.160156 17.027344 L 3.832031 18.96875 C 4.175781 19.21875 4.367188 19.625 4.335938 20.046875 L 4.109375 23.34375 C 4.0625 24.054688 4.625 24.660156 5.339844 24.660156 L 8.640625 24.660156 C 9.066406 24.660156 9.460938 24.878906 9.6875 25.238281 L 11.441406 28.035156 C 11.820312 28.640625 12.628906 28.796875 13.207031 28.378906 L 15.878906 26.4375 C 16.222656 26.1875 16.671875 26.132812 17.0625 26.292969 L 20.128906 27.523438 C 20.789062 27.792969 21.539062 27.441406 21.761719 26.761719 L 22.78125 23.621094 C 22.910156 23.21875 23.242188 22.910156 23.652344 22.808594 L 26.855469 22.003906 C 27.546875 21.832031 27.949219 21.109375 27.730469 20.429688 L 26.707031 17.289062 C 26.578125 16.882812 26.664062 16.441406 26.933594 16.117188 L 29.054688 13.582031 C 29.511719 13.035156 29.410156 12.214844 28.835938 11.796875 L 26.160156 9.855469 C 25.820312 9.605469 25.628906 9.195312 25.65625 8.773438 L 25.882812 5.480469 C 25.933594 4.765625 25.367188 4.164062 24.65625 4.164062 L 21.351562 4.164062 C 20.925781 4.164062 20.53125 3.945312 20.308594 3.585938 Z M 13.324219 19.242188 L 20.652344 11.914062 L 19.078125 10.339844 L 13.324219 16.089844 L 10.859375 13.625 L 9.28125 15.199219 Z M 13.324219 19.242188 " fill-opacity="1" fill-rule="evenodd"/></g></svg>