<svg xmlns="http://www.w3.org/2000/svg" xmlns:xlink="http://www.w3.org/1999/xlink" width="40" zoomAndPan="magnify" viewBox="0 0 30 30.000001" height="40" preserveAspectRatio="xMidYMid meet" version="1.0"><defs><clipPath id="082fe912a7"><path d="M 17 6.949219 L 17.34375 6.949219 L 17.34375 7.195312 L 17 7.195312 Z M 17 6.949219 " clip-rule="nonzero"/></clipPath><clipPath id="1110125dac"><path d="M 17.324219 7.113281 C 16.667969 7.332031 17.25 6.96875 17.25 6.96875 " clip-rule="nonzero"/></clipPath><clipPath id="9acc373ded"><path d="M 2.96875 0 L 26.921875 0 L 26.921875 29.03125 L 2.96875 29.03125 Z M 2.96875 0 " clip-rule="nonzero"/></clipPath></defs><g clip-path="url(#082fe912a7)"><g clip-path="url(#1110125dac)"><path fill="#0c4370" d="M 13.765625 4.066406 L 20.300781 4.066406 L 20.300781 10.378906 L 13.765625 10.378906 Z M 13.765625 4.066406 " fill-opacity="1" fill-rule="nonzero"/></g></g><g clip-path="url(#9acc373ded)"><path fill="#0c4370" d="M 25.054688 0.00390625 L 4.9375 0.00390625 C 3.851562 0.00390625 2.96875 0.886719 2.96875 1.972656 L 2.96875 27.058594 C 2.96875 28.144531 3.851562 29.027344 4.9375 29.027344 L 25.054688 29.027344 C 26.140625 29.027344 27.019531 28.144531 27.019531 27.058594 L 27.019531 1.972656 C 27.019531 0.886719 26.140625 0.00390625 25.054688 0.00390625 Z M 26.558594 27.058594 C 26.558594 27.890625 25.882812 28.566406 25.054688 28.566406 L 4.9375 28.566406 C 4.105469 28.566406 3.429688 27.890625 3.429688 27.058594 L 3.429688 1.972656 C 3.429688 1.140625 4.105469 0.464844 4.9375 0.464844 L 25.054688 0.464844 C 25.882812 0.464844 26.558594 1.140625 26.558594 1.972656 Z M 26.558594 27.058594 " fill-opacity="1" fill-rule="nonzero"/></g><path fill="#0c4370" d="M 24.632812 7.203125 L 24.632812 1.460938 C 24.632812 1.332031 24.53125 1.230469 24.402344 1.230469 L 5.589844 1.230469 C 5.460938 1.230469 5.359375 1.332031 5.359375 1.460938 L 5.359375 7.203125 C 5.359375 7.328125 5.460938 7.433594 5.589844 7.433594 L 24.402344 7.433594 C 24.53125 7.433594 24.632812 7.328125 24.632812 7.203125 Z M 24.171875 6.972656 L 5.820312 6.972656 L 5.820312 1.691406 L 24.171875 1.691406 Z M 24.171875 6.972656 " fill-opacity="1" fill-rule="nonzero"/><path fill="#0c4370" d="M 11.136719 5.941406 C 11.164062 5.953125 11.195312 5.960938 11.222656 5.960938 C 11.3125 5.960938 11.398438 5.90625 11.4375 5.816406 L 11.628906 5.332031 L 12.945312 5.332031 L 13.136719 5.816406 C 13.175781 5.90625 13.261719 5.960938 13.351562 5.960938 C 13.378906 5.960938 13.410156 5.953125 13.4375 5.941406 C 13.554688 5.894531 13.613281 5.761719 13.566406 5.644531 L 13.3125 5.015625 C 13.3125 5.015625 13.3125 5.015625 13.3125 5.011719 L 12.5 2.992188 C 12.464844 2.90625 12.382812 2.847656 12.289062 2.847656 C 12.191406 2.847656 12.109375 2.90625 12.074219 2.992188 L 11.007812 5.644531 C 10.960938 5.761719 11.019531 5.894531 11.136719 5.941406 Z M 12.289062 3.695312 L 12.757812 4.871094 L 11.816406 4.871094 Z M 12.289062 3.695312 " fill-opacity="1" fill-rule="nonzero"/><path fill="#0c4370" d="M 13.746094 3.308594 L 14.511719 3.308594 L 14.511719 5.726562 C 14.511719 5.851562 14.617188 5.957031 14.742188 5.957031 C 14.871094 5.957031 14.972656 5.851562 14.972656 5.726562 L 14.972656 3.308594 L 15.742188 3.308594 C 15.867188 3.308594 15.972656 3.207031 15.972656 3.078125 C 15.972656 2.953125 15.867188 2.847656 15.742188 2.847656 L 13.746094 2.847656 C 13.617188 2.847656 13.515625 2.953125 13.515625 3.078125 C 13.515625 3.207031 13.617188 3.308594 13.746094 3.308594 Z M 13.746094 3.308594 " fill-opacity="1" fill-rule="nonzero"/><path fill="#0c4370" d="M 16.757812 5.957031 C 16.886719 5.957031 16.988281 5.851562 16.988281 5.726562 L 16.988281 3.765625 L 17.578125 4.542969 C 17.625 4.601562 17.691406 4.632812 17.761719 4.632812 C 17.835938 4.632812 17.902344 4.601562 17.945312 4.542969 L 18.539062 3.765625 L 18.539062 5.726562 C 18.539062 5.851562 18.640625 5.957031 18.769531 5.957031 C 18.894531 5.957031 19 5.851562 19 5.726562 L 19 3.078125 C 19 2.980469 18.9375 2.890625 18.84375 2.859375 C 18.75 2.828125 18.644531 2.859375 18.585938 2.941406 L 17.761719 4.023438 L 16.941406 2.941406 C 16.882812 2.859375 16.78125 2.828125 16.6875 2.859375 C 16.59375 2.890625 16.527344 2.980469 16.527344 3.078125 L 16.527344 5.726562 C 16.527344 5.851562 16.632812 5.957031 16.757812 5.957031 Z M 16.757812 5.957031 " fill-opacity="1" fill-rule="nonzero"/><path fill="#0c4370" d="M 21.679688 17.101562 L 21.679688 8.492188 C 21.679688 8.363281 21.578125 8.261719 21.449219 8.261719 L 8.542969 8.261719 C 8.414062 8.261719 8.3125 8.363281 8.3125 8.492188 L 8.3125 17.101562 C 8.3125 17.230469 8.414062 17.332031 8.542969 17.332031 L 21.449219 17.332031 C 21.578125 17.332031 21.679688 17.230469 21.679688 17.101562 Z M 21.679688 17.101562 " fill-opacity="1" fill-rule="nonzero"/><path fill="#0c4370" d="M 10.519531 18.667969 C 10.519531 18.542969 10.417969 18.4375 10.289062 18.4375 L 8.542969 18.4375 C 8.414062 18.4375 8.3125 18.542969 8.3125 18.667969 L 8.3125 19.933594 C 8.3125 20.0625 8.414062 20.164062 8.542969 20.164062 L 10.289062 20.164062 C 10.417969 20.164062 10.519531 20.0625 10.519531 19.933594 Z M 10.519531 18.667969 " fill-opacity="1" fill-rule="nonzero"/><path fill="#0c4370" d="M 13.398438 18.667969 C 13.398438 18.542969 13.296875 18.4375 13.167969 18.4375 L 11.417969 18.4375 C 11.292969 18.4375 11.1875 18.542969 11.1875 18.667969 L 11.1875 19.933594 C 11.1875 20.0625 11.292969 20.164062 11.417969 20.164062 L 13.167969 20.164062 C 13.296875 20.164062 13.398438 20.0625 13.398438 19.933594 Z M 13.398438 18.667969 " fill-opacity="1" fill-rule="nonzero"/><path fill="#0c4370" d="M 16.277344 18.667969 C 16.277344 18.542969 16.171875 18.4375 16.046875 18.4375 L 14.296875 18.4375 C 14.171875 18.4375 14.066406 18.542969 14.066406 18.667969 L 14.066406 19.933594 C 14.066406 20.0625 14.171875 20.164062 14.296875 20.164062 L 16.046875 20.164062 C 16.171875 20.164062 16.277344 20.0625 16.277344 19.933594 Z M 16.277344 18.667969 " fill-opacity="1" fill-rule="nonzero"/><path fill="#0c4370" d="M 10.519531 21.050781 C 10.519531 20.921875 10.417969 20.820312 10.289062 20.820312 L 8.542969 20.820312 C 8.414062 20.820312 8.3125 20.921875 8.3125 21.050781 L 8.3125 22.316406 C 8.3125 22.445312 8.414062 22.546875 8.542969 22.546875 L 10.289062 22.546875 C 10.417969 22.546875 10.519531 22.445312 10.519531 22.316406 Z M 10.519531 21.050781 " fill-opacity="1" fill-rule="nonzero"/><path fill="#0c4370" d="M 13.398438 21.050781 C 13.398438 20.921875 13.296875 20.820312 13.167969 20.820312 L 11.417969 20.820312 C 11.292969 20.820312 11.1875 20.921875 11.1875 21.050781 L 11.1875 22.316406 C 11.1875 22.445312 11.292969 22.546875 11.417969 22.546875 L 13.167969 22.546875 C 13.296875 22.546875 13.398438 22.445312 13.398438 22.316406 Z M 13.398438 21.050781 " fill-opacity="1" fill-rule="nonzero"/><path fill="#0c4370" d="M 16.277344 21.050781 C 16.277344 20.921875 16.171875 20.820312 16.046875 20.820312 L 14.296875 20.820312 C 14.171875 20.820312 14.066406 20.921875 14.066406 21.050781 L 14.066406 22.316406 C 14.066406 22.445312 14.171875 22.546875 14.296875 22.546875 L 16.046875 22.546875 C 16.171875 22.546875 16.277344 22.445312 16.277344 22.316406 Z M 16.277344 21.050781 " fill-opacity="1" fill-rule="nonzero"/><path fill="#0c4370" d="M 10.289062 23.203125 L 8.542969 23.203125 C 8.414062 23.203125 8.3125 23.304688 8.3125 23.433594 L 8.3125 24.699219 C 8.3125 24.824219 8.414062 24.925781 8.542969 24.925781 L 10.289062 24.925781 C 10.417969 24.925781 10.519531 24.824219 10.519531 24.699219 L 10.519531 23.433594 C 10.519531 23.304688 10.417969 23.203125 10.289062 23.203125 Z M 10.289062 23.203125 " fill-opacity="1" fill-rule="nonzero"/><path fill="#0c4370" d="M 13.167969 23.203125 L 11.417969 23.203125 C 11.292969 23.203125 11.1875 23.304688 11.1875 23.433594 L 11.1875 24.699219 C 11.1875 24.824219 11.292969 24.925781 11.417969 24.925781 L 13.167969 24.925781 C 13.296875 24.925781 13.398438 24.824219 13.398438 24.699219 L 13.398438 23.433594 C 13.398438 23.304688 13.296875 23.203125 13.167969 23.203125 Z M 13.167969 23.203125 " fill-opacity="1" fill-rule="nonzero"/><path fill="#0c4370" d="M 16.046875 23.203125 L 14.296875 23.203125 C 14.171875 23.203125 14.066406 23.304688 14.066406 23.433594 L 14.066406 24.699219 C 14.066406 24.824219 14.171875 24.925781 14.296875 24.925781 L 16.046875 24.925781 C 16.171875 24.925781 16.277344 24.824219 16.277344 24.699219 L 16.277344 23.433594 C 16.277344 23.304688 16.171875 23.203125 16.046875 23.203125 Z M 16.046875 23.203125 " fill-opacity="1" fill-rule="nonzero"/><path fill="#0c4370" d="M 23.160156 25.582031 L 6.832031 25.582031 C 6.601562 25.582031 6.386719 25.671875 6.226562 25.835938 C 6.0625 25.996094 5.976562 26.210938 5.976562 26.441406 C 5.976562 26.914062 6.359375 27.296875 6.832031 27.296875 L 23.160156 27.296875 C 23.386719 27.296875 23.601562 27.207031 23.765625 27.046875 C 23.925781 26.882812 24.015625 26.667969 24.015625 26.441406 C 24.015625 25.96875 23.632812 25.582031 23.160156 25.582031 Z M 23.160156 25.582031 " fill-opacity="1" fill-rule="nonzero"/><path fill="#0c4370" d="M 24.46875 18.4375 L 18.429688 18.4375 C 17.878906 18.4375 17.433594 18.886719 17.433594 19.433594 L 17.433594 20.238281 C 17.433594 20.785156 17.878906 21.234375 18.429688 21.234375 L 18.882812 21.234375 L 18.882812 23.335938 C 18.882812 23.980469 19.40625 24.5 20.046875 24.5 L 22.851562 24.5 C 23.492188 24.5 24.015625 23.980469 24.015625 23.335938 L 24.015625 21.234375 L 24.46875 21.234375 C 25.019531 21.234375 25.464844 20.785156 25.464844 20.238281 L 25.464844 19.433594 C 25.464844 18.886719 25.019531 18.4375 24.46875 18.4375 Z M 23.554688 23.335938 C 23.554688 23.726562 23.238281 24.039062 22.851562 24.039062 L 20.046875 24.039062 C 19.660156 24.039062 19.34375 23.726562 19.34375 23.335938 L 19.34375 20.066406 L 23.554688 20.066406 Z M 23.554688 23.335938 " fill-opacity="1" fill-rule="nonzero"/></svg>