<svg xmlns="http://www.w3.org/2000/svg" xmlns:xlink="http://www.w3.org/1999/xlink" width="40" zoomAndPan="magnify" viewBox="0 0 30 30.000001" height="40" preserveAspectRatio="xMidYMid meet" version="1.0"><defs><clipPath id="be1fbd1759"><path d="M 17 6.949219 L 17.34375 6.949219 L 17.34375 7.195312 L 17 7.195312 Z M 17 6.949219 " clip-rule="nonzero"/></clipPath><clipPath id="286125e084"><path d="M 17.324219 7.113281 C 16.667969 7.332031 17.25 6.96875 17.25 6.96875 " clip-rule="nonzero"/></clipPath><clipPath id="7a96be9213"><path d="M 9 17 L 29.515625 17 L 29.515625 29 L 9 29 Z M 9 17 " clip-rule="nonzero"/></clipPath><clipPath id="ffbacce9f2"><path d="M 0.484375 17 L 9 17 L 9 28 L 0.484375 28 Z M 0.484375 17 " clip-rule="nonzero"/></clipPath></defs><g clip-path="url(#be1fbd1759)"><g clip-path="url(#286125e084)"><path fill="#0c4370" d="M 13.765625 4.066406 L 20.300781 4.066406 L 20.300781 10.378906 L 13.765625 10.378906 Z M 13.765625 4.066406 " fill-opacity="1" fill-rule="nonzero"/></g></g><path fill="#0c4370" d="M 15.125 17.308594 C 15.371094 17.308594 15.574219 17.105469 15.574219 16.859375 L 15.574219 16.5 C 15.730469 16.429688 15.867188 16.339844 15.976562 16.207031 C 16.179688 15.980469 16.269531 15.6875 16.269531 15.398438 C 16.269531 14.8125 15.867188 14.207031 15.078125 14.207031 L 14.765625 14.207031 C 14.496094 14.207031 14.472656 13.980469 14.472656 13.890625 C 14.472656 13.800781 14.496094 13.734375 14.539062 13.6875 C 14.585938 13.644531 14.652344 13.597656 14.765625 13.597656 L 15.617188 13.597656 C 15.867188 13.597656 16.066406 13.398438 16.066406 13.148438 C 16.066406 12.902344 15.867188 12.699219 15.617188 12.699219 L 15.550781 12.699219 L 15.550781 12.363281 C 15.550781 12.117188 15.347656 11.914062 15.101562 11.914062 C 14.855469 11.914062 14.652344 12.117188 14.652344 12.363281 L 14.652344 12.699219 C 13.933594 12.746094 13.574219 13.328125 13.574219 13.890625 C 13.574219 14.476562 14 15.105469 14.765625 15.105469 L 15.078125 15.105469 C 15.324219 15.105469 15.371094 15.285156 15.371094 15.398438 C 15.371094 15.488281 15.347656 15.554688 15.304688 15.621094 C 15.257812 15.6875 15.191406 15.710938 15.078125 15.710938 L 14.222656 15.710938 C 13.976562 15.710938 13.773438 15.914062 13.773438 16.160156 C 13.773438 16.410156 13.976562 16.609375 14.222656 16.609375 L 14.675781 16.609375 L 14.675781 16.859375 C 14.675781 17.105469 14.875 17.308594 15.125 17.308594 Z M 15.125 17.308594 " fill-opacity="1" fill-rule="nonzero"/><path fill="#0c4370" d="M 16.585938 17.800781 C 16.71875 17.847656 16.832031 17.914062 16.945312 17.960938 C 17.191406 18.070312 17.417969 18.160156 17.597656 18.230469 C 18.066406 17.890625 18.472656 17.441406 18.765625 16.949219 C 18.519531 16.769531 18.292969 16.566406 18.066406 16.363281 C 17.730469 16.992188 17.214844 17.488281 16.585938 17.800781 Z M 16.585938 17.800781 " fill-opacity="1" fill-rule="nonzero"/><path fill="#0c4370" d="M 12.382812 17.152344 C 11.753906 16.5 11.347656 15.597656 11.347656 14.609375 C 11.347656 12.632812 12.964844 11.015625 14.945312 11.015625 C 15.550781 11.015625 16.136719 11.171875 16.652344 11.441406 C 16.71875 11.148438 16.808594 10.855469 16.921875 10.566406 C 16.335938 10.273438 15.664062 10.113281 14.964844 10.113281 C 12.492188 10.113281 10.472656 12.136719 10.472656 14.609375 C 10.472656 15.621094 10.808594 16.542969 11.371094 17.308594 C 11.707031 17.242188 12.042969 17.171875 12.382812 17.152344 Z M 12.382812 17.152344 " fill-opacity="1" fill-rule="nonzero"/><g clip-path="url(#7a96be9213)"><path fill="#0c4370" d="M 28.878906 18.410156 C 28.65625 18.160156 28.117188 17.800781 27.238281 18.070312 C 26.699219 18.230469 24.992188 19.441406 23.597656 20.476562 C 23.710938 20.8125 23.734375 21.152344 23.710938 21.511719 C 25.351562 20.273438 27.105469 19.039062 27.507812 18.925781 C 27.734375 18.859375 28.046875 18.8125 28.25 19.039062 C 28.453125 19.242188 28.496094 19.621094 28.386719 19.960938 C 28.070312 20.902344 22.089844 25.847656 19.640625 27.199219 C 17.507812 28.390625 16.089844 27.714844 15.054688 27.21875 C 13.953125 26.703125 11.640625 25.804688 9.570312 25.445312 L 9.570312 25.625 C 9.570312 25.871094 9.527344 26.117188 9.480469 26.34375 C 11.4375 26.703125 13.664062 27.558594 14.675781 28.050781 C 15.304688 28.34375 16.203125 28.769531 17.347656 28.769531 C 18.136719 28.769531 19.058594 28.570312 20.089844 27.984375 C 22.25 26.792969 28.765625 21.667969 29.261719 20.253906 C 29.441406 19.578125 29.308594 18.859375 28.878906 18.410156 Z M 28.878906 18.410156 " fill-opacity="1" fill-rule="nonzero"/></g><path fill="#0c4370" d="M 13.730469 18.902344 C 14.832031 19.015625 15.574219 19.332031 16.203125 19.621094 C 16.585938 19.804688 16.964844 19.960938 17.371094 20.050781 C 17.867188 20.164062 18.449219 20.164062 19.078125 20.183594 C 20.136719 20.207031 21.351562 20.253906 21.730469 20.746094 C 21.867188 20.925781 21.980469 21.265625 21.867188 21.601562 C 21.753906 21.9375 21.460938 22.207031 20.992188 22.34375 C 19.800781 22.726562 16.515625 23.0625 15.167969 22.882812 C 14.921875 22.835938 14.695312 23.015625 14.652344 23.265625 C 14.628906 23.511719 14.785156 23.738281 15.035156 23.78125 C 15.324219 23.828125 15.6875 23.847656 16.113281 23.847656 C 17.796875 23.847656 20.203125 23.554688 21.238281 23.21875 C 21.980469 22.996094 22.496094 22.523438 22.699219 21.894531 C 22.878906 21.332031 22.765625 20.65625 22.40625 20.207031 C 21.753906 19.375 20.382812 19.332031 19.058594 19.285156 C 18.472656 19.261719 17.910156 19.261719 17.507812 19.171875 C 17.191406 19.105469 16.875 18.972656 16.515625 18.792969 C 15.84375 18.5 15.011719 18.117188 13.753906 18.003906 C 12.382812 17.871094 10.472656 18.386719 9.28125 18.746094 C 9.390625 19.015625 9.460938 19.308594 9.480469 19.621094 C 10.652344 19.285156 12.492188 18.792969 13.730469 18.902344 Z M 13.730469 18.902344 " fill-opacity="1" fill-rule="nonzero"/><g clip-path="url(#ffbacce9f2)"><path fill="#0c4370" d="M 6.851562 17.980469 L 1.007812 17.980469 C 0.761719 17.980469 0.558594 18.183594 0.558594 18.433594 C 0.558594 18.679688 0.761719 18.882812 1.007812 18.882812 L 4.605469 18.882812 L 4.605469 26.523438 L 1.007812 26.523438 C 0.761719 26.523438 0.558594 26.726562 0.558594 26.972656 C 0.558594 27.21875 0.761719 27.421875 1.007812 27.421875 L 6.851562 27.421875 C 7.839844 27.421875 8.648438 26.613281 8.648438 25.625 L 8.648438 19.78125 C 8.648438 18.792969 7.839844 17.980469 6.851562 17.980469 Z M 7.75 25.625 C 7.75 26.117188 7.347656 26.523438 6.851562 26.523438 L 5.503906 26.523438 L 5.503906 18.882812 L 6.851562 18.882812 C 7.347656 18.882812 7.75 19.285156 7.75 19.78125 Z M 7.75 25.625 " fill-opacity="1" fill-rule="nonzero"/></g><path fill="#0c4370" d="M 21.910156 17.082031 C 24.382812 17.082031 26.40625 15.058594 26.40625 12.585938 C 26.40625 10.113281 24.382812 8.09375 21.910156 8.09375 C 19.4375 8.09375 17.417969 10.113281 17.417969 12.585938 C 17.417969 15.058594 19.4375 17.082031 21.910156 17.082031 Z M 21.910156 8.992188 C 23.890625 8.992188 25.507812 10.609375 25.507812 12.585938 C 25.507812 14.566406 23.890625 16.183594 21.910156 16.183594 C 19.933594 16.183594 18.316406 14.566406 18.316406 12.585938 C 18.316406 10.609375 19.933594 8.992188 21.910156 8.992188 Z M 21.910156 8.992188 " fill-opacity="1" fill-rule="nonzero"/><path fill="#0c4370" d="M 21.753906 13.082031 L 22.070312 13.082031 C 22.316406 13.082031 22.363281 13.261719 22.363281 13.375 C 22.363281 13.464844 22.339844 13.53125 22.292969 13.597656 C 22.25 13.667969 22.179688 13.6875 22.070312 13.6875 L 21.214844 13.6875 C 20.96875 13.6875 20.765625 13.890625 20.765625 14.136719 C 20.765625 14.386719 20.96875 14.589844 21.214844 14.589844 L 21.664062 14.589844 L 21.664062 14.835938 C 21.664062 15.082031 21.867188 15.285156 22.113281 15.285156 C 22.363281 15.285156 22.5625 15.082031 22.5625 14.835938 L 22.5625 14.476562 C 22.722656 14.40625 22.855469 14.316406 22.96875 14.183594 C 23.171875 13.957031 23.261719 13.667969 23.261719 13.375 C 23.261719 12.789062 22.855469 12.183594 22.070312 12.183594 L 21.753906 12.183594 C 21.484375 12.183594 21.460938 11.957031 21.460938 11.867188 C 21.460938 11.777344 21.484375 11.710938 21.53125 11.664062 C 21.574219 11.621094 21.640625 11.574219 21.753906 11.574219 L 22.609375 11.574219 C 22.855469 11.574219 23.058594 11.375 23.058594 11.125 C 23.058594 10.878906 22.855469 10.675781 22.609375 10.675781 L 22.542969 10.675781 L 22.542969 10.339844 C 22.542969 10.09375 22.339844 9.890625 22.089844 9.890625 C 21.84375 9.890625 21.640625 10.09375 21.640625 10.339844 L 21.640625 10.675781 C 20.921875 10.722656 20.5625 11.304688 20.5625 11.867188 C 20.5625 12.453125 20.992188 13.082031 21.753906 13.082031 Z M 21.753906 13.082031 " fill-opacity="1" fill-rule="nonzero"/><path fill="#0c4370" d="M 21.910156 7.191406 C 22.160156 7.191406 22.363281 6.992188 22.363281 6.742188 L 22.363281 2.699219 C 22.363281 2.449219 22.160156 2.246094 21.910156 2.246094 C 21.664062 2.246094 21.460938 2.449219 21.460938 2.699219 L 21.460938 6.742188 C 21.460938 6.992188 21.664062 7.191406 21.910156 7.191406 Z M 21.910156 7.191406 " fill-opacity="1" fill-rule="nonzero"/><path fill="#0c4370" d="M 21.910156 1.347656 C 22.160156 1.347656 22.363281 1.144531 22.363281 0.898438 L 22.363281 0.449219 C 22.363281 0.203125 22.160156 0 21.910156 0 C 21.664062 0 21.460938 0.203125 21.460938 0.449219 L 21.460938 0.898438 C 21.460938 1.144531 21.664062 1.347656 21.910156 1.347656 Z M 21.910156 1.347656 " fill-opacity="1" fill-rule="nonzero"/><path fill="#0c4370" d="M 25.058594 7.867188 C 25.304688 7.867188 25.507812 7.664062 25.507812 7.417969 L 25.507812 3.371094 C 25.507812 3.125 25.304688 2.921875 25.058594 2.921875 C 24.8125 2.921875 24.609375 3.125 24.609375 3.371094 L 24.609375 7.417969 C 24.609375 7.664062 24.8125 7.867188 25.058594 7.867188 Z M 25.058594 7.867188 " fill-opacity="1" fill-rule="nonzero"/><path fill="#0c4370" d="M 25.058594 2.023438 C 25.304688 2.023438 25.507812 1.820312 25.507812 1.574219 L 25.507812 1.125 C 25.507812 0.875 25.304688 0.675781 25.058594 0.675781 C 24.8125 0.675781 24.609375 0.875 24.609375 1.125 L 24.609375 1.574219 C 24.609375 1.820312 24.8125 2.023438 25.058594 2.023438 Z M 25.058594 2.023438 " fill-opacity="1" fill-rule="nonzero"/><path fill="#0c4370" d="M 18.765625 7.867188 C 19.011719 7.867188 19.214844 7.664062 19.214844 7.417969 L 19.214844 3.371094 C 19.214844 3.125 19.011719 2.921875 18.765625 2.921875 C 18.519531 2.921875 18.316406 3.125 18.316406 3.371094 L 18.316406 7.417969 C 18.316406 7.664062 18.519531 7.867188 18.765625 7.867188 Z M 18.765625 7.867188 " fill-opacity="1" fill-rule="nonzero"/><path fill="#0c4370" d="M 18.765625 2.023438 C 19.011719 2.023438 19.214844 1.820312 19.214844 1.574219 L 19.214844 1.125 C 19.214844 0.875 19.011719 0.675781 18.765625 0.675781 C 18.519531 0.675781 18.316406 0.875 18.316406 1.125 L 18.316406 1.574219 C 18.316406 1.820312 18.519531 2.023438 18.765625 2.023438 Z M 18.765625 2.023438 " fill-opacity="1" fill-rule="nonzero"/></svg>